<svg version="1.1" id="Capa_1" xmlns="http://www.w3.org/2000/svg" x="0" y="0" viewBox="0 0 102 102" xml:space="preserve" enable-background="new 0 0 512.001 512.001" width="100" height="100"><title>chef</title><g class="nc-icon-wrapper"><path d="M41.18 77.2h20.04c7.88 0 14.27 6.39 14.26 14.27v9.43h-48.56v-9.43c0-7.88 6.39-14.27 14.26-14.27z" fill="#20b661"/><path d="M61.22 77.2h-4.41c7.88 0 14.27 6.39 14.26 14.27v9.43h4.41v-9.43c0-7.88-6.39-14.27-14.26-14.27z" fill="#20b661"/><path d="M43.03 56.52v17.6c0 4.51 3.66 8.18 8.17 8.18s8.18-3.66 8.17-8.18v-17.6h-16.34z" fill="#FA9E3E"/><path fill="#484655" d="M24.08 43.83h54.24v13.91h-54.24z"/><path d="M25.92 50.49h9.59v11h-9.59c-3.04 0-5.5-2.46-5.49-5.5s2.46-5.5 5.49-5.5z" fill="#FA9E3E"/><path d="M76.48 50.49h-9.59v11h9.59c3.04 0 5.5-2.46 5.49-5.5s-2.46-5.5-5.49-5.5z" fill="#FA9E3E"/><path d="M51.2 73.56c-12.02 0-21.77-9.75-21.77-21.77v-22.02h43.54v22.02c0 12.02-9.75 21.77-21.77 21.77z" fill="#FFB56B"/><path d="M68.44 29.77v24.29c0 10.4-8.15 18.91-18.41 19.47 0.39 0.02 0.78 0.03 1.17 0.03 12.02 0 21.77-9.75 21.77-21.77v-22.02h-4.53z" fill="#EF9245"/><path d="M84.67 16.37c0-6.57-6.45-11.89-14.41-11.89-3.15 0-6.07 0.84-8.44 2.26-2.38-3.17-6.25-5.24-10.62-5.24s-8.24 2.07-10.62 5.24c-2.37-1.42-5.29-2.25-8.44-2.26-7.96 0-14.41 5.32-14.41 11.89 0 4.47 2.99 8.35 7.4 10.39l-1.05 17.07c18.08 1.69 36.16 1.69 54.24 0l-1.05-17.07c4.41-2.03 7.4-5.92 7.4-10.39z" fill="#20b661"/><path d="M84.67 16.37c0-6.57-6.45-11.89-14.41-11.89a17.48 17.48 0 0 0-2.09 0.13c6.43 0.84 11.37 5.78 11.36 11.76 0 4.47-2.76 8.35-6.83 10.39l0.88 17.47a292.01 292.01 0 0 0 4.74-0.4l-1.05-17.07c4.41-2.03 7.4-5.92 7.4-10.39z" fill="#20b661"/><path d="M49.45 78.94l-7.16-3.95a2.5 2.5 0 0 0-2.9 0.35l-2.92 2.68 12.19 5.59 0.79-4.67z" fill="#E11E1D"/><path d="M52.95 78.94l7.16-3.95a2.5 2.5 0 0 1 2.9 0.35l2.92 2.68-12.19 5.59-0.79-4.67z" fill="#E11E1D"/><path d="M49.02 79.93l-1.07 13.77h3.65l3.5 2.5-1.69-16.31a1.77 1.77 0 0 0-1.75-1.59h-0.88a1.77 1.77 0 0 0-1.76 1.63z" fill="#FB403F"/><path d="M58.16 57.65l0 0c-0.47-1.76-2.07-3.05-3.97-3.05-1.18 0-2.24 0.5-2.99 1.29-0.75-0.8-1.81-1.29-2.99-1.29-1.9 0-3.5 1.29-3.97 3.05l0 0c-0.65 3.11-4.65 3.6-6.57 2.47 0.54 2.95 4.77 8.29 12.82 2.02 0.04-0.03 0.08-0.06 0.12-0.09 0.04-0.03 0.09-0.06 0.13-0.1l0 0c0.16-0.13 0.32-0.27 0.46-0.42a4.16 4.16 0 0 0 0.46 0.42l0 0c0.04 0.03 0.09 0.06 0.13 0.1 0.04 0.03 0.08 0.06 0.12 0.09 8.05 6.27 12.29 0.94 12.82-2.02-1.92 1.13-5.92 0.64-6.57-2.47z" fill="#484655"/><path d="M61.75 52.48a1.5 1.5 0 0 0 1.5-1.5v-0.4a1.5 1.5 0 0 0-3 0v0.4a1.5 1.5 0 0 0 1.5 1.5z"/><path d="M40.65 52.48a1.5 1.5 0 0 0 1.5-1.5v-0.4a1.5 1.5 0 0 0-3 0v0.4a1.5 1.5 0 0 0 1.5 1.5z"/><path d="M79.82 49.85v-6.02a1.52 1.52 0 0 0-0.01-0.17l-0.99-16c4.55-2.45 7.34-6.69 7.35-11.29 0-7.38-7.14-13.39-15.91-13.39-2.87 0-5.63 0.64-8.07 1.85-2.76-3.05-6.78-4.83-10.99-4.83s-8.23 1.79-10.99 4.83c-2.44-1.21-5.2-1.85-8.07-1.85-4.2 0-8.15 1.36-11.14 3.83a1.5 1.5 0 0 0 1.91 2.31c2.45-2.02 5.73-3.14 9.23-3.14 2.78 0 5.43 0.71 7.67 2.05a1.5 1.5 0 0 0 1.97-0.39c2.18-2.91 5.7-4.64 9.42-4.64s7.24 1.73 9.42 4.64a1.5 1.5 0 0 0 1.97 0.39c2.24-1.34 4.89-2.04 7.67-2.05 7.12 0 12.91 4.66 12.91 10.39 0 3.71-2.5 7.17-6.53 9.03a1.5 1.5 0 0 0-0.87 1.45l0.96 15.62c-1.3 0.11-2.59 0.22-3.87 0.31a291.3 291.3 0 0 1-43.32 0c-1.28-0.1-2.58-0.2-3.87-0.31l0.96-15.62a1.5 1.5 0 0 0-0.87-1.45c-4.03-1.85-6.53-5.31-6.53-9.03 0-0.86 0.13-1.71 0.39-2.52a1.5 1.5 0 0 0-2.87-0.9 11.45 11.45 0 0 0-0.52 3.42c0 4.59 2.79 8.84 7.35 11.29l-0.99 16c-0.01 0.05-0.01 0.11-0.01 0.17v6.02c-2.22 1.21-3.65 3.56-3.65 6.14 0 3.86 3.14 7 6.99 7h4.88c2.42 4.4 6.17 7.89 10.73 9.97v0.25a4 4 0 0 0-3.15 1.03l-2.67 2.44c-6.17 2.28-10.3 8.18-10.29 14.78v9.44a1.5 1.5 0 0 0 1.5 1.5h48.56a1.5 1.5 0 0 0 1.5-1.5v-9.44c0-6.61-4.12-12.5-10.29-14.78l-2.67-2.45a4 4 0 0 0-3.15-1.02v-0.25a23.27 23.27 0 0 0 10.73-9.97h4.88c3.86 0 7-3.14 6.99-7 0-2.58-1.43-4.94-3.65-6.14z m-3-4.38v3.53a7.19 7.19 0 0 0-0.34-0.01h-2.01v-3.32c0.78-0.06 1.57-0.13 2.35-0.2z m-48.89 0.2v3.32h-2.01c-0.12 0-0.23 0-0.34 0.01v-3.53c0.78 0.07 1.57 0.13 2.35 0.2z m-2.01 14.32c-2.2 0-4-1.79-3.99-4 0-1.69 1.07-3.2 2.65-3.76a3.94 3.94 0 0 1 1.34-0.24h2.01l0 0.21v0c0 0.13 0.01 0.26 0.01 0.39 0 0.05 0 0.09 0.01 0.14 0 0.06 0 0.13 0.01 0.18 0 0.06 0 0.12 0 0.18 0 0.1 0.01 0.2 0.02 0.29 0 0.05 0.01 0.1 0.01 0.17 0 0.03 0 0.05 0.01 0.08 0 0.02 0 0.04 0.01 0.07a9.78 9.78 0 0 0 0.02 0.31l0.01 0.03a23.27 23.27 0 0 0 0.06 0.6c0.02 0.14 0.03 0.27 0.05 0.42l0.04 0.25c0.01 0.04 0.01 0.07 0.02 0.11l0 0.03c0 0.03 0.01 0.06 0.02 0.09l0.01 0.09c0.01 0.09 0.03 0.17 0.05 0.24l0 0.03c0.01 0.08 0.03 0.17 0.05 0.27 0.02 0.12 0.05 0.25 0.07 0.37 0.02 0.12 0.05 0.24 0.08 0.35l0 0.03 0.07 0.28c0.03 0.11 0.05 0.22 0.08 0.33 0.03 0.11 0.06 0.21 0.08 0.32 0.02 0.08 0.04 0.16 0.07 0.24l0.02 0.06c0.06 0.19 0.11 0.39 0.17 0.57a20.45 20.45 0 0 0 0.13 0.4 26.56 26.56 0 0 0 0.3 0.87h-3.49v0z m19.34 14.31c0.06 0.02 0.11 0.03 0.17 0.04 0.22 0.06 0.45 0.11 0.68 0.16 0.02 0 0.04 0.01 0.06 0.02a23.1 23.1 0 0 0 0.91 0.18c0.23 0.04 0.47 0.08 0.7 0.11l0.04 0.01a23.68 23.68 0 0 0 0.93 0.12c0.24 0.03 0.49 0.05 0.73 0.06l0.02 0a23.59 23.59 0 0 0 0.94 0.05c0.25 0.01 0.51 0.01 0.76 0.01a23.98 23.98 0 0 0 0.94-0.02c0.25-0.01 0.5-0.02 0.76-0.04 0.01 0 0.02 0 0.02 0a23.39 23.39 0 0 0 0.91-0.08c0.25-0.03 0.5-0.06 0.75-0.1l0.04-0.01c0.24-0.03 0.47-0.07 0.7-0.11a22.73 22.73 0 0 0 0.91-0.18l0.06-0.01a23.31 23.31 0 0 0 0.85-0.21c0.24-0.06 0.48-0.13 0.72-0.2l0.01-0.01v0.03c0 0.13-0.01 0.26-0.01 0.4l-4.76 2.62a3.26 3.26 0 0 0-1.44-0.34h-0.88c-0.52 0-1.01 0.12-1.46 0.35l-4.78-2.63c-0.01-0.13-0.02-0.26-0.01-0.4v-0.03l0.01 0.01c0.24 0.07 0.48 0.14 0.72 0.2z m5.04 8.62l0-0.02 0.22-2.85a0.27 0.27 0 0 1 0.06-0.16c0.03-0.04 0.1-0.09 0.2-0.09h0.88c0.11 0 0.17 0.06 0.2 0.1 0.03 0.04 0.05 0.09 0.06 0.14l1.35 13.01-0.8-0.57a1.5 1.5 0 0 0-0.87-0.28h-2.03l0.73-9.28z m-9.9-6.47a1 1 0 0 1 1.17-0.14l5.98 3.29c-0.01 0.07-0.02 0.14-0.02 0.21l-0.12 1.57-8.26-3.78 1.25-1.15z m25.61 3.18c4.8 1.94 7.97 6.61 7.97 11.83v7.94h-45.56v-7.94c0-5.22 3.18-9.89 7.97-11.83l4.5 2.07h-3.16a1.5 1.5 0 0 0-1.5 1.5v11.7a1.5 1.5 0 0 0 3 0v-10.2h7.92l-0.7 8.88a1.5 1.5 0 0 0 1.5 1.62h3.17l3.11 2.22a1.5 1.5 0 0 0 1.62 0.08 1.5 1.5 0 0 0 0.74-1.45l-1.19-11.55 10.61-4.87z m-4.01-3.18l1.25 1.15-8.18 3.75-0.16-1.62a3.22 3.22 0 0 0-0.02-0.15l5.94-3.27a1 1 0 0 1 1.17 0.14z m-3.19-5.86c-2.42 0.98-4.98 1.48-7.61 1.47-0.49 0-0.98-0.02-1.47-0.05a20.29 20.29 0 0 1-0.88-0.08c-0.08-0.01-0.16-0.02-0.24-0.03a20.05 20.05 0 0 1-5.02-1.31h0l0 0c-4.59-1.86-8.33-5.33-10.55-9.77a17.22 17.22 0 0 1-0.21-0.45c-0.02-0.03-0.03-0.07-0.05-0.1a18.09 18.09 0 0 1-0.1-0.23l0 0-0.01-0.02-0.03-0.06c0-0.01-0.01-0.02-0.01-0.03l0 0a12.18 12.18 0 0 1-0.12-0.27 1.36 1.36 0 0 0-0.02-0.06l-0.01-0.02a18.54 18.54 0 0 1-0.24-0.6c-0.04-0.1-0.07-0.2-0.11-0.3a18.43 18.43 0 0 1-0.29-0.85c-0.05-0.17-0.1-0.34-0.14-0.49l-0.02-0.05c-0.02-0.07-0.04-0.13-0.05-0.2l-0.01-0.04a12.2 12.2 0 0 1-0.07-0.27c-0.02-0.08-0.04-0.17-0.07-0.27l0 0a19.95 19.95 0 0 1-0.13-0.57l0 0 0-0.01a19.95 19.95 0 0 1-0.07-0.34c-0.01-0.06-0.02-0.12-0.03-0.19l-0.01-0.04c-0.01-0.07-0.02-0.13-0.03-0.2l-0.01-0.02-0.01-0.11-0.01-0.02c0-0.02-0.01-0.04-0.01-0.07l0-0.04a4.58 4.58 0 0 0-0.02-0.1l-0.03-0.18a9.44 9.44 0 0 1-0.04-0.36l0-0.01c-0.01-0.06-0.01-0.12-0.02-0.18l0 0a20.19 20.19 0 0 1-0.04-0.32l0-0.05c-0.01-0.08-0.02-0.15-0.02-0.23a1.48 1.48 0 0 0-0.01-0.08l0-0.04a2.82 2.82 0 0 0-0.01-0.04c0-0.03 0-0.06 0-0.08a1.32 1.32 0 0 0-0.01-0.07 5.25 5.25 0 0 1-0.01-0.22 1.3 1.3 0 0 0 0-0.05c0-0.04 0-0.07-0.01-0.11a1.8 1.8 0 0 0 0-0.04c0-0.04 0-0.08 0-0.13a1.93 1.93 0 0 0-0.01-0.05l0-0.02 0-0.02c0-0.12-0.01-0.24-0.01-0.37 0-0.12 0-0.24 0-0.36v-5.9c6.73 0.47 13.5 0.7 20.27 0.7s13.54-0.24 20.27-0.7v5.9c0 0.12 0 0.24 0 0.36v0.01c0 0.12-0.01 0.24-0.01 0.36l0 0.02 0 0.06a10.63 10.63 0 0 1-0.02 0.34 5.62 5.62 0 0 1-0.01 0.22c0 0.02 0 0.04-0.01 0.07 0 0.03 0 0.06-0.01 0.09-0.01 0.16-0.03 0.32-0.04 0.48l0 0.03c-0.01 0.07-0.01 0.14-0.02 0.22l-0.01 0.02c-0.01 0.06-0.01 0.12-0.02 0.18v0.01a1.64 1.64 0 0 0 0 0.05l-0.01 0.04v0a1.64 1.64 0 0 0 0 0.06l0 0-0.01 0.04 0 0 0 0.02-0.03 0.21-0.01 0.02c0 0.02 0 0.04 0 0.06a1.81 1.81 0 0 0-0.01 0.06l-0.01 0.02c-0.01 0.06-0.02 0.13-0.03 0.2-0.02 0.1-0.03 0.2-0.05 0.3l-0.02 0.11-0.01 0.06-0.01 0.05 0 0.03c-0.02 0.11-0.04 0.23-0.07 0.35-0.04 0.18-0.08 0.37-0.13 0.55l0 0.03c-0.02 0.09-0.04 0.17-0.07 0.27a11.31 11.31 0 0 1-0.08 0.3c-0.02 0.07-0.04 0.13-0.05 0.2l-0.01 0.04c-0.05 0.17-0.1 0.34-0.16 0.51-0.03 0.11-0.07 0.22-0.1 0.33a23.27 23.27 0 0 1-0.29 0.82 18.45 18.45 0 0 1-0.25 0.61 1.42 1.42 0 0 0-0.02 0.06 11.79 11.79 0 0 1-0.12 0.27c0 0 0 0.01 0 0l-0.01 0.03-0.03 0.06-0.01 0.02a18.22 18.22 0 0 1-0.15 0.33l-0.01 0.01c-0.04 0.09-0.09 0.18-0.13 0.28-0.03 0.05-0.05 0.11-0.07 0.16-2.21 4.44-5.96 7.91-10.55 9.77z m17.67-10.6h-3.49a18.85 18.85 0 0 0 0.11-0.3l0 0 0 0a25.7 25.7 0 0 0 0.2-0.59 25.3 25.3 0 0 0 0.3-0.96l0.01-0.05c0.02-0.08 0.04-0.16 0.07-0.24a15.86 15.86 0 0 0 0.16-0.64c0.06-0.24 0.11-0.47 0.14-0.66 0.03-0.12 0.05-0.25 0.08-0.38l0 0c0-0.02 0.01-0.03 0.01-0.05l0.01-0.07c0.01-0.05 0.02-0.1 0.03-0.15l0 0 0.01-0.04c0.02-0.11 0.04-0.23 0.05-0.33 0.01-0.09 0.03-0.18 0.04-0.26l0-0.01c0.01-0.04 0.01-0.09 0.02-0.13l0.01-0.02h0c0 0 0-0.01 0-0.01l0.03-0.19a3.86 3.86 0 0 0 0.02-0.16l0-0.01c0-0.02 0.01-0.04 0-0.06l0.01-0.05c0.01-0.08 0.02-0.16 0.03-0.23l0-0.03c0.01-0.09 0.02-0.18 0.03-0.27 0.02-0.18 0.03-0.36 0.05-0.56 0-0.05 0.01-0.11 0.01-0.15 0.01-0.1 0.01-0.2 0.02-0.31a12.2 12.2 0 0 0 0.02-0.4l0-0.02c0-0.02 0-0.04 0-0.06 0-0.13 0.01-0.26 0.01-0.4 0-0.07 0-0.14 0-0.21h2.01c0.46 0 0.91 0.08 1.34 0.24 1.59 0.57 2.65 2.08 2.65 3.76 0 2.2-1.79 4-3.99 4z"/><path d="M43.1 87.82c-0.08-0.05-0.17-0.1-0.26-0.14-0.09-0.04-0.18-0.07-0.28-0.08-0.19-0.04-0.39-0.04-0.59 0-0.1 0.02-0.19 0.05-0.28 0.08-0.09 0.04-0.18 0.08-0.26 0.14s-0.16 0.12-0.22 0.19c-0.28 0.28-0.44 0.67-0.44 1.06a1.51 1.51 0 0 0 0.11 0.57c0.04 0.09 0.08 0.18 0.14 0.26 0.05 0.08 0.12 0.16 0.19 0.23 0.07 0.07 0.15 0.13 0.22 0.18s0.17 0.1 0.26 0.14c0.09 0.04 0.19 0.07 0.28 0.09 0.1 0.02 0.19 0.03 0.3 0.03s0.2-0.01 0.29-0.03c0.1-0.02 0.19-0.05 0.28-0.09 0.09-0.04 0.18-0.08 0.26-0.14s0.16-0.12 0.23-0.18c0.07-0.07 0.13-0.15 0.18-0.23a1.54 1.54 0 0 0 0.23-0.54 1.52 1.52 0 0 0-0.41-1.35c-0.07-0.07-0.15-0.13-0.23-0.19z"/><path d="M43.65 94.89c-0.04-0.09-0.08-0.18-0.14-0.26-0.05-0.08-0.12-0.16-0.18-0.22-0.07-0.07-0.15-0.13-0.23-0.19s-0.17-0.1-0.26-0.14c-0.09-0.04-0.18-0.07-0.28-0.08-0.19-0.04-0.39-0.04-0.59 0-0.1 0.02-0.19 0.05-0.28 0.08-0.09 0.04-0.18 0.08-0.26 0.14s-0.16 0.12-0.22 0.19c-0.07 0.07-0.13 0.15-0.19 0.22-0.05 0.08-0.1 0.17-0.14 0.26-0.04 0.09-0.07 0.19-0.08 0.28-0.02 0.1-0.03 0.2-0.03 0.3 0 0.4 0.16 0.78 0.44 1.06 0.07 0.07 0.15 0.13 0.22 0.18s0.17 0.1 0.26 0.14c0.09 0.04 0.19 0.07 0.28 0.09 0.1 0.02 0.19 0.03 0.3 0.03s0.2-0.01 0.29-0.03c0.1-0.02 0.19-0.05 0.28-0.09 0.09-0.04 0.18-0.08 0.26-0.14s0.16-0.12 0.23-0.18a1.52 1.52 0 0 0 0.41-1.36c-0.02-0.1-0.05-0.19-0.09-0.28z"/><path d="M58.75 89.64c0.04 0.09 0.08 0.18 0.14 0.26 0.05 0.08 0.12 0.16 0.18 0.23a1.52 1.52 0 0 0 1.06 0.44c0.39 0 0.78-0.16 1.06-0.44 0.07-0.07 0.13-0.15 0.19-0.23s0.1-0.17 0.14-0.26a1.51 1.51 0 0 0 0.11-0.57 1.51 1.51 0 0 0-0.11-0.58 1.54 1.54 0 0 0-0.14-0.26 1.45 1.45 0 0 0-0.19-0.22 1.51 1.51 0 0 0-1.06-0.44c-0.4 0-0.78 0.16-1.06 0.44-0.07 0.07-0.13 0.15-0.18 0.22a1.54 1.54 0 0 0-0.23 0.54c-0.02 0.1-0.03 0.19-0.03 0.3 0 0.1 0.01 0.2 0.03 0.29 0.02 0.1 0.05 0.19 0.09 0.28z"/><path d="M58.75 96.04c0.04 0.09 0.08 0.18 0.14 0.26 0.05 0.08 0.12 0.16 0.18 0.23a1.52 1.52 0 0 0 1.06 0.44c0.39 0 0.78-0.16 1.06-0.44 0.07-0.07 0.13-0.15 0.19-0.23s0.1-0.17 0.14-0.26a1.51 1.51 0 0 0 0.11-0.57c0-0.1-0.01-0.2-0.03-0.3-0.02-0.1-0.05-0.19-0.08-0.28-0.04-0.09-0.08-0.18-0.14-0.26s-0.12-0.16-0.19-0.22c-0.28-0.28-0.67-0.44-1.06-0.44-0.4 0-0.78 0.16-1.06 0.44-0.07 0.07-0.13 0.15-0.18 0.22s-0.1 0.17-0.14 0.26c-0.04 0.09-0.07 0.19-0.09 0.28-0.02 0.1-0.03 0.2-0.03 0.3 0 0.1 0.01 0.2 0.03 0.29 0.02 0.1 0.05 0.19 0.09 0.28z"/><path d="M65.59 58.89a1.5 1.5 0 0 0-1.62-0.07c-0.66 0.39-1.98 0.51-3.04 0.05-0.71-0.32-1.15-0.83-1.3-1.53a1.49 1.49 0 0 0-0.06-0.2c-0.7-2.38-2.89-4.04-5.38-4.04-1.06 0-2.1 0.31-2.99 0.87-0.89-0.56-1.93-0.87-2.99-0.87-2.49 0-4.69 1.65-5.38 4.04-0.02 0.07-0.04 0.13-0.06 0.2-0.15 0.7-0.58 1.21-1.3 1.53-1.06 0.47-2.38 0.34-3.04-0.05a1.5 1.5 0 1 0-2.24 1.56c0.38 2.07 1.99 4.64 4.76 5.7 2.09 0.8 5.55 0.98 10.25-2.6 3.08 2.34 5.63 3.07 7.61 3.07 1.04 0 1.93-0.2 2.64-0.47 2.76-1.06 4.38-3.62 4.76-5.7a1.5 1.5 0 0 0-0.62-1.49z m-5.21 4.38c-2.01 0.77-4.62-0.04-7.55-2.32a1.24 1.24 0 0 0-0.08-0.06l-0.14-0.1a1.3 1.3 0 0 0-0.03-0.02c-0.1-0.08-0.2-0.17-0.29-0.27a1.5 1.5 0 0 0-2.18 0c-0.09 0.1-0.19 0.19-0.29 0.27l-0.03 0.02-0.13 0.1a1.48 1.48 0 0 0-0.09 0.06c-2.93 2.29-5.55 3.09-7.55 2.32-0.66-0.25-1.21-0.65-1.64-1.11 0.79-0.05 1.58-0.23 2.3-0.55 1.56-0.69 2.62-1.94 3-3.53 0-0.02 0.01-0.03 0.01-0.04 0.3-1.14 1.34-1.94 2.52-1.94 0.72 0 1.4 0.29 1.9 0.82a1.5 1.5 0 0 0 2.18 0c0.5-0.53 1.18-0.82 1.9-0.82 1.18 0 2.22 0.8 2.52 1.94 0 0.02 0.01 0.03 0.01 0.04 0.37 1.59 1.43 2.84 3 3.53 0.72 0.32 1.51 0.5 2.3 0.55-0.43 0.46-0.97 0.86-1.64 1.11z"/></g></svg>