<?xml version="1.0" encoding="iso-8859-1"?>
<!-- Generator: Adobe Illustrator 19.0.0, SVG Export Plug-In . SVG Version: 6.00 Build 0)  -->
<svg version="1.1" id="Layer_1" xmlns="http://www.w3.org/2000/svg" xmlns:xlink="http://www.w3.org/1999/xlink" x="0px" y="0px"
	 viewBox="0 0 511.999 511.999" style="enable-background:new 0 0 511.999 511.999;" xml:space="preserve">
<path style="fill:#507C5C;" d="M41.221,484.605c-2.634,0-5.301-0.722-7.692-2.234c-6.728-4.255-8.733-13.16-4.476-19.889
	l97.209-153.687c4.812-7.829,13.157-12.498,22.357-12.498c9.256,0,17.646,4.725,22.442,12.642l16.733,27.613
	c4.126,6.808,1.952,15.674-4.857,19.8c-6.811,4.126-15.675,1.952-19.798-4.858l-14.565-24.035L53.418,477.895
	C50.673,482.23,46,484.605,41.221,484.605z"/>
<path style="fill:#CFF09E;" d="M166.596,476.9l138.605-228.7c6.56-10.825,22.266-10.825,28.826,0l138.605,221.988"/>
<g>
	<path style="fill:#507C5C;" d="M166.583,491.316c-2.546,0-5.122-0.675-7.457-2.09c-6.81-4.126-8.982-12.991-4.857-19.799
		l138.605-228.699c5.716-9.431,15.711-15.061,26.741-15.061c10.995,0,20.964,5.596,26.689,14.975l138.559,221.912
		c4.216,6.754,2.159,15.646-4.594,19.863c-6.752,4.216-15.646,2.159-19.862-4.593L321.802,255.836
		c-0.033-0.055-0.068-0.11-0.099-0.163c-0.473-0.78-1.173-1.173-2.086-1.173c-0.911,0-1.612,0.395-2.084,1.173L178.924,484.371
		C176.212,488.845,171.457,491.316,166.583,491.316z"/>
	<path style="fill:#507C5C;" d="M439.197,497.069H72.803C32.66,497.069,0,464.41,0,424.267V87.733
		C0,47.59,32.66,14.931,72.803,14.931h366.393c40.144,0,72.803,32.66,72.803,72.802v336.533
		C512,464.41,479.34,497.069,439.197,497.069z M72.803,43.761c-24.247,0-43.973,19.726-43.973,43.973v336.533
		c0,24.247,19.726,43.971,43.973,43.971h366.393c24.247,0,43.973-19.726,43.973-43.971V87.733c0-24.247-19.726-43.971-43.973-43.971
		L72.803,43.761L72.803,43.761z"/>
</g>
<circle style="fill:#CFF09E;" cx="175.46" cy="150.08" r="46.36"/>
<path style="fill:#507C5C;" d="M175.466,210.845c-33.509,0-60.77-27.261-60.77-60.77s27.261-60.771,60.77-60.771
	s60.771,27.262,60.771,60.771S208.974,210.845,175.466,210.845z M175.466,118.136c-17.611,0-31.939,14.327-31.939,31.94
	c0,17.611,14.327,31.939,31.939,31.939c17.613,0,31.94-14.327,31.94-31.939C207.406,132.463,193.077,118.136,175.466,118.136z"/>
<g>
</g>
<g>
</g>
<g>
</g>
<g>
</g>
<g>
</g>
<g>
</g>
<g>
</g>
<g>
</g>
<g>
</g>
<g>
</g>
<g>
</g>
<g>
</g>
<g>
</g>
<g>
</g>
<g>
</g>
</svg>
