<?xml version="1.0" encoding="iso-8859-1"?>
<!-- Generator: Adobe Illustrator 19.0.0, SVG Export Plug-In . SVG Version: 6.00 Build 0)  -->
<svg version="1.1" id="Layer_1" xmlns="http://www.w3.org/2000/svg" xmlns:xlink="http://www.w3.org/1999/xlink" x="0px" y="0px"
	 viewBox="0 0 512 512" style="enable-background:new 0 0 512 512;" xml:space="preserve">
<path style="fill:#CFF09E;" d="M255.28,42.36c-105.805,0-193.224,80.254-207.161,181.763c11.773-3.514,37.348-13.24,51.553-13.24
	c38.125,0,67.115,19.942,77.953,39.59l0.038,0.007l0.014-0.038c10.837-19.614,41.115-39.154,79.216-39.154
	c38.115,0,67.1,19.54,77.953,39.154l0.072,0.065l0.058-0.051c0,0,39.054-39.161,77.156-39.161c16.303,0,38.807,8.34,51.748,12.856
	C450.692,121.844,361.697,42.36,255.28,42.36L255.28,42.36z"/>
<g>
	<path style="fill:#507C5C;" d="M334.897,264.933c-3.468,0-6.93-1.233-9.662-3.701l-0.072-0.065
		c-1.185-1.071-2.186-2.331-2.959-3.728c-8.447-15.267-32.488-31.699-65.31-31.699c-32.133,0-57.747,15.867-66.508,31.581
		c-2.958,5.476-9.167,8.531-15.402,7.359c-4.235-0.801-7.93-3.455-10.012-7.229c-8.532-15.47-32.605-32.12-65.3-32.12
		c-8.79,0-26.838,5.943-37.622,9.495c-3.776,1.243-7.035,2.318-9.798,3.141c-4.708,1.412-9.805,0.324-13.535-2.874
		c-3.729-3.198-5.58-8.07-4.911-12.937C49.008,111.418,144.223,27.911,255.28,27.911c112.804,0,208.645,83.571,222.931,194.393
		c0.64,4.968-1.338,9.911-5.226,13.068c-3.89,3.157-9.135,4.072-13.864,2.422l-2.881-1.01
		c-11.747-4.127-31.409-11.038-44.106-11.038c-26.337,0-57.24,25.203-66.924,34.916c-0.273,0.273-0.559,0.538-0.854,0.789
		C341.636,263.771,338.264,264.933,334.897,264.933z M256.894,196.841c35.575,0,63.712,14.78,80.209,32.491
		c15.935-12.877,45.111-32.484,75.029-32.484c10.342,0,22.085,2.624,32.926,5.813C423.25,118.046,345.497,56.81,255.28,56.81
		c-88.77,0-165.925,61.348-188.222,146.077c12.432-3.786,23.505-6.455,32.612-6.455c34.068,0,61.367,13.756,78.134,30.676
		C194.702,210.662,222.544,196.841,256.894,196.841z"/>
	<path style="fill:#507C5C;" d="M256,512c-7.98,0-14.449-6.47-14.449-14.449V358.594c0-7.979,6.469-14.449,14.449-14.449
		c7.98,0,14.449,6.47,14.449,14.449V497.55C270.449,505.529,263.98,512,256,512z"/>
	<path style="fill:#507C5C;" d="M256,293.81c-7.98,0-14.449-6.47-14.449-14.449V215.78c0-7.979,6.469-14.449,14.449-14.449
		c7.98,0,14.449,6.47,14.449,14.449v63.581C270.449,287.339,263.98,293.81,256,293.81z"/>
	<path style="fill:#507C5C;" d="M256,56.81c-7.98,0-14.449-6.47-14.449-14.449V14.449C241.551,6.47,248.02,0,256,0
		c7.98,0,14.449,6.47,14.449,14.449V42.36C270.449,50.341,263.98,56.81,256,56.81z"/>
</g>
<path style="fill:#CFF09E;" d="M373.341,381.955H138.659c-12.902,0-23.36-10.459-23.36-23.36l0,0c0-12.902,10.459-23.36,23.36-23.36
	h234.684c12.902,0,23.36,10.459,23.36,23.36l0,0C396.702,371.496,386.243,381.955,373.341,381.955z"/>
<g>
	<path style="fill:#507C5C;" d="M373.341,396.404H138.657c-20.848,0-37.81-16.961-37.81-37.81s16.961-37.81,37.81-37.81h234.684
		c20.848,0,37.81,16.961,37.81,37.81S394.19,396.404,373.341,396.404z M138.657,349.683c-4.913,0-8.911,3.998-8.911,8.911
		s3.997,8.911,8.911,8.911h234.684c4.913,0,8.911-3.998,8.911-8.911s-3.997-8.911-8.911-8.911H138.657z"/>
	<path style="fill:#507C5C;" d="M135.533,502.848c-7.98,0-14.449-6.47-14.449-14.449v-43.347c0-5.576-4.537-10.115-10.115-10.115
		H88.201c-7.98,0-14.449-6.47-14.449-14.449s6.469-14.449,14.449-14.449h22.768c21.512,0,39.014,17.501,39.014,39.014V488.4
		C149.983,496.377,143.514,502.848,135.533,502.848z"/>
	<path style="fill:#507C5C;" d="M35.83,502.848c-7.98,0-14.449-6.47-14.449-14.449V333.308c0-7.979,6.469-14.449,14.449-14.449
		s14.449,6.47,14.449,14.449v155.091C50.28,496.377,43.811,502.848,35.83,502.848z"/>
	<path style="fill:#507C5C;" d="M376.467,502.848c-7.98,0-14.449-6.47-14.449-14.449v-43.347c0-21.512,17.501-39.014,39.014-39.014
		H423.8c7.98,0,14.449,6.47,14.449,14.449s-6.469,14.449-14.449,14.449h-22.768c-5.577,0-10.115,4.539-10.115,10.115v43.347
		C390.916,496.377,384.447,502.848,376.467,502.848z"/>
	<path style="fill:#507C5C;" d="M476.17,502.848c-7.98,0-14.449-6.47-14.449-14.449V333.308c0-7.979,6.469-14.449,14.449-14.449
		s14.449,6.47,14.449,14.449v155.091C490.619,496.377,484.15,502.848,476.17,502.848z"/>
</g>
<g>
</g>
<g>
</g>
<g>
</g>
<g>
</g>
<g>
</g>
<g>
</g>
<g>
</g>
<g>
</g>
<g>
</g>
<g>
</g>
<g>
</g>
<g>
</g>
<g>
</g>
<g>
</g>
<g>
</g>
</svg>
